<?xml version="1.0" standalone="no"?>
<!DOCTYPE svg PUBLIC "-//W3C//DTD SVG 20010904//EN"
 "http://www.w3.org/TR/2001/REC-SVG-20010904/DTD/svg10.dtd">
<svg version="1.0" xmlns="http://www.w3.org/2000/svg"
 width="275.000000pt" height="251.000000pt" viewBox="0 0 275.000000 251.000000"
 preserveAspectRatio="xMidYMid meet">
<metadata>
Created by potrace 1.15, written by Peter Selinger 2001-2017
</metadata>
<g transform="translate(0.000000,251.000000) scale(0.100000,-0.100000)"
fill="#000000" stroke="none">
<path d="M595 2216 c-159 -51 -245 -139 -245 -252 0 -224 413 -490 923 -595
202 -41 404 -56 565 -41 197 18 199 27 4 28 -339 1 -666 75 -949 215 l-103 51
0 179 0 179 575 0 575 0 0 -275 c0 -307 -7 -282 73 -269 l37 7 0 318 0 319
-25 0 c-14 1 -297 1 -630 1 -333 0 -630 0 -660 -1 l-55 0 -2 -192 -3 -193 -72
71 c-111 111 -155 222 -120 305 20 49 73 106 119 130 21 11 38 22 38 24 0 3
-1 5 -2 4 -2 0 -21 -6 -43 -13z"/>
<path d="M2277 1789 c130 -137 105 -289 -67 -399 -101 -65 -308 -128 -493
-151 -148 -18 -501 -7 -647 20 -133 25 -297 71 -379 107 -79 34 -33 1 64 -46
87 -42 274 -102 379 -121 40 -8 66 -17 66 -25 0 -31 -13 -44 -45 -44 -29 0
-33 3 -29 23 l5 22 -12 -22 c-9 -18 -21 -23 -52 -23 -34 0 -39 2 -34 20 3 11
1 18 -4 14 -5 -3 -9 -12 -9 -20 0 -10 -12 -14 -41 -14 -40 0 -41 1 -36 27 5
26 4 26 -9 8 -8 -10 -14 -22 -14 -27 0 -4 -26 -8 -58 -8 l-58 0 7 53 c3 28 5
53 4 55 -2 2 -22 -29 -46 -70 -23 -40 -62 -107 -86 -148 l-43 -75 711 -3 c392
-1 714 -1 716 1 2 2 -15 55 -37 116 -22 62 -40 118 -40 124 0 7 39 22 88 35
114 29 260 102 318 158 50 49 83 113 84 160 0 78 -60 172 -154 238 -88 62 -96
64 -49 15z"/>
<path d="M938 648 l-3 -143 -122 -3 -123 -3 0 -29 0 -30 120 0 c125 0 171 11
184 45 3 9 6 82 6 161 l0 144 -30 0 -29 0 -3 -142z"/>
<path d="M1240 634 c0 -88 4 -164 10 -175 10 -17 23 -19 160 -19 l150 0 0 30
0 30 -130 0 -130 0 0 145 0 145 -30 0 -30 0 0 -156z"/>
<path d="M1799 761 c-29 -29 -29 -31 -29 -146 0 -116 0 -117 30 -146 l29 -30
138 3 138 3 3 94 c2 69 -1 97 -10 103 -7 4 -57 8 -110 8 l-98 0 0 -30 0 -29
83 -3 82 -3 0 -40 0 -40 -110 0 -110 0 0 110 0 110 138 3 137 3 0 29 0 30
-141 0 -141 0 -29 -29z"/>
</g>
</svg>
